<mxfile host="app.diagrams.net" modified="2020-11-11T17:06:08.738Z" agent="5.0 (Macintosh; Intel Mac OS X 10_15_7) AppleWebKit/605.1.15 (KHTML, like Gecko) Version/14.0 Safari/605.1.15" etag="Vz3JeV7FQKdK_ogvnuBt" version="13.9.6" type="github">
  <diagram id="C5RBs43oDa-KdzZeNtuy" name="Page-1">
    <mxGraphModel dx="1310" dy="937" grid="1" gridSize="10" guides="1" tooltips="1" connect="1" arrows="1" fold="1" page="1" pageScale="1" pageWidth="827" pageHeight="1169" background="#114B5F" math="0" shadow="0">
      <root>
        <mxCell id="WIyWlLk6GJQsqaUBKTNV-0" />
        <mxCell id="WIyWlLk6GJQsqaUBKTNV-1" parent="WIyWlLk6GJQsqaUBKTNV-0" />
        <mxCell id="uv9ooHN_KcEvDb9HeKNv-7" style="edgeStyle=orthogonalEdgeStyle;curved=0;rounded=1;sketch=0;orthogonalLoop=1;jettySize=auto;html=1;exitX=1;exitY=0.5;exitDx=0;exitDy=0;strokeColor=#028090;fillColor=#F45B69;fontColor=#E4FDE1;fontSize=12;fontStyle=1" edge="1" parent="WIyWlLk6GJQsqaUBKTNV-1" source="WIyWlLk6GJQsqaUBKTNV-3">
          <mxGeometry relative="1" as="geometry">
            <mxPoint x="490" y="279" as="targetPoint" />
            <Array as="points">
              <mxPoint x="490" y="239" />
            </Array>
          </mxGeometry>
        </mxCell>
        <mxCell id="uv9ooHN_KcEvDb9HeKNv-29" style="edgeStyle=orthogonalEdgeStyle;curved=0;rounded=1;sketch=0;orthogonalLoop=1;jettySize=auto;html=1;exitX=0.5;exitY=1;exitDx=0;exitDy=0;entryX=0.5;entryY=0;entryDx=0;entryDy=0;strokeColor=#028090;fillColor=#F45B69;fontColor=#E4FDE1;fontSize=12;fontStyle=1" edge="1" parent="WIyWlLk6GJQsqaUBKTNV-1" source="WIyWlLk6GJQsqaUBKTNV-3" target="uv9ooHN_KcEvDb9HeKNv-16">
          <mxGeometry relative="1" as="geometry" />
        </mxCell>
        <mxCell id="WIyWlLk6GJQsqaUBKTNV-3" value="Power On" style="rounded=1;whiteSpace=wrap;html=1;fontSize=12;glass=0;strokeWidth=1;shadow=0;fillColor=#F45B69;strokeColor=#028090;fontColor=#E4FDE1;fontStyle=1" parent="WIyWlLk6GJQsqaUBKTNV-1" vertex="1">
          <mxGeometry x="60" y="219" width="120" height="40" as="geometry" />
        </mxCell>
        <mxCell id="uv9ooHN_KcEvDb9HeKNv-0" style="edgeStyle=orthogonalEdgeStyle;curved=0;rounded=1;sketch=0;orthogonalLoop=1;jettySize=auto;html=1;exitX=1;exitY=0.5;exitDx=0;exitDy=0;entryX=0;entryY=0.5;entryDx=0;entryDy=0;strokeColor=#028090;fillColor=#F45B69;fontColor=#E4FDE1;fontSize=12;fontStyle=1" edge="1" parent="WIyWlLk6GJQsqaUBKTNV-1" target="WIyWlLk6GJQsqaUBKTNV-7">
          <mxGeometry relative="1" as="geometry">
            <mxPoint x="180" y="328.9999999999999" as="sourcePoint" />
          </mxGeometry>
        </mxCell>
        <mxCell id="WIyWlLk6GJQsqaUBKTNV-7" value="Print to OLED" style="rounded=1;whiteSpace=wrap;html=1;fontSize=12;glass=0;strokeWidth=1;shadow=0;fillColor=#F45B69;strokeColor=#028090;fontColor=#E4FDE1;fontStyle=1" parent="WIyWlLk6GJQsqaUBKTNV-1" vertex="1">
          <mxGeometry x="230" y="309" width="120" height="40" as="geometry" />
        </mxCell>
        <mxCell id="uv9ooHN_KcEvDb9HeKNv-11" style="edgeStyle=orthogonalEdgeStyle;curved=0;rounded=1;sketch=0;orthogonalLoop=1;jettySize=auto;html=1;exitX=1;exitY=0.5;exitDx=0;exitDy=0;entryX=0;entryY=0.5;entryDx=0;entryDy=0;strokeColor=#028090;fillColor=#F45B69;fontColor=#E4FDE1;fontSize=12;fontStyle=1" edge="1" parent="WIyWlLk6GJQsqaUBKTNV-1" source="uv9ooHN_KcEvDb9HeKNv-6" target="uv9ooHN_KcEvDb9HeKNv-10">
          <mxGeometry relative="1" as="geometry" />
        </mxCell>
        <mxCell id="uv9ooHN_KcEvDb9HeKNv-32" style="edgeStyle=orthogonalEdgeStyle;curved=0;rounded=1;sketch=0;orthogonalLoop=1;jettySize=auto;html=1;exitX=0;exitY=0.5;exitDx=0;exitDy=0;entryX=0;entryY=0.5;entryDx=0;entryDy=0;strokeColor=#028090;fillColor=#F45B69;fontColor=#E4FDE1;fontSize=12;fontStyle=1" edge="1" parent="WIyWlLk6GJQsqaUBKTNV-1" source="uv9ooHN_KcEvDb9HeKNv-6" target="uv9ooHN_KcEvDb9HeKNv-30">
          <mxGeometry relative="1" as="geometry" />
        </mxCell>
        <mxCell id="uv9ooHN_KcEvDb9HeKNv-6" value="Is &lt;br style=&quot;font-size: 12px;&quot;&gt;Soil Moisture&lt;br style=&quot;font-size: 12px;&quot;&gt;Low?" style="rhombus;whiteSpace=wrap;html=1;shadow=0;fontFamily=Helvetica;fontSize=12;align=center;strokeWidth=1;spacing=6;spacingTop=-4;fillColor=#F45B69;strokeColor=#028090;fontColor=#E4FDE1;fontStyle=1" vertex="1" parent="WIyWlLk6GJQsqaUBKTNV-1">
          <mxGeometry x="440" y="389" width="100" height="80" as="geometry" />
        </mxCell>
        <mxCell id="uv9ooHN_KcEvDb9HeKNv-33" style="edgeStyle=orthogonalEdgeStyle;curved=0;rounded=1;sketch=0;orthogonalLoop=1;jettySize=auto;html=1;exitX=0.5;exitY=0;exitDx=0;exitDy=0;entryX=1;entryY=0.5;entryDx=0;entryDy=0;strokeColor=#028090;fillColor=#F45B69;fontColor=#E4FDE1;fontSize=12;fontStyle=1" edge="1" parent="WIyWlLk6GJQsqaUBKTNV-1" source="uv9ooHN_KcEvDb9HeKNv-10" target="uv9ooHN_KcEvDb9HeKNv-30">
          <mxGeometry relative="1" as="geometry" />
        </mxCell>
        <mxCell id="uv9ooHN_KcEvDb9HeKNv-10" value="Turn on Water Pump" style="rounded=1;whiteSpace=wrap;html=1;fontSize=12;glass=0;strokeWidth=1;shadow=0;fillColor=#F45B69;strokeColor=#028090;fontColor=#E4FDE1;fontStyle=1" vertex="1" parent="WIyWlLk6GJQsqaUBKTNV-1">
          <mxGeometry x="620" y="409" width="120" height="40" as="geometry" />
        </mxCell>
        <mxCell id="uv9ooHN_KcEvDb9HeKNv-19" style="edgeStyle=orthogonalEdgeStyle;curved=0;rounded=1;sketch=0;orthogonalLoop=1;jettySize=auto;html=1;exitX=0.5;exitY=1;exitDx=0;exitDy=0;entryX=0.5;entryY=0;entryDx=0;entryDy=0;strokeColor=#028090;fillColor=#F45B69;fontColor=#E4FDE1;fontSize=12;fontStyle=1" edge="1" parent="WIyWlLk6GJQsqaUBKTNV-1" source="uv9ooHN_KcEvDb9HeKNv-16" target="uv9ooHN_KcEvDb9HeKNv-17">
          <mxGeometry relative="1" as="geometry" />
        </mxCell>
        <mxCell id="uv9ooHN_KcEvDb9HeKNv-16" value="Read Temperature" style="rounded=1;whiteSpace=wrap;html=1;fontSize=12;glass=0;strokeWidth=1;shadow=0;fillColor=#F45B69;strokeColor=#028090;fontColor=#E4FDE1;fontStyle=1" vertex="1" parent="WIyWlLk6GJQsqaUBKTNV-1">
          <mxGeometry x="60" y="309" width="120" height="40" as="geometry" />
        </mxCell>
        <mxCell id="uv9ooHN_KcEvDb9HeKNv-20" style="edgeStyle=orthogonalEdgeStyle;curved=0;rounded=1;sketch=0;orthogonalLoop=1;jettySize=auto;html=1;exitX=0.5;exitY=1;exitDx=0;exitDy=0;entryX=0.5;entryY=0;entryDx=0;entryDy=0;strokeColor=#028090;fillColor=#F45B69;fontColor=#E4FDE1;fontSize=12;fontStyle=1" edge="1" parent="WIyWlLk6GJQsqaUBKTNV-1" source="uv9ooHN_KcEvDb9HeKNv-17" target="uv9ooHN_KcEvDb9HeKNv-18">
          <mxGeometry relative="1" as="geometry" />
        </mxCell>
        <mxCell id="uv9ooHN_KcEvDb9HeKNv-23" style="edgeStyle=orthogonalEdgeStyle;curved=0;rounded=1;sketch=0;orthogonalLoop=1;jettySize=auto;html=1;exitX=1;exitY=0.5;exitDx=0;exitDy=0;strokeColor=#028090;fillColor=#F45B69;fontColor=#E4FDE1;fontSize=12;fontStyle=1" edge="1" parent="WIyWlLk6GJQsqaUBKTNV-1" source="uv9ooHN_KcEvDb9HeKNv-17">
          <mxGeometry relative="1" as="geometry">
            <mxPoint x="260" y="359" as="targetPoint" />
          </mxGeometry>
        </mxCell>
        <mxCell id="uv9ooHN_KcEvDb9HeKNv-17" value="Read Air Pressure" style="rounded=1;whiteSpace=wrap;html=1;fontSize=12;glass=0;strokeWidth=1;shadow=0;fillColor=#F45B69;strokeColor=#028090;fontColor=#E4FDE1;fontStyle=1" vertex="1" parent="WIyWlLk6GJQsqaUBKTNV-1">
          <mxGeometry x="60" y="389" width="120" height="40" as="geometry" />
        </mxCell>
        <mxCell id="uv9ooHN_KcEvDb9HeKNv-22" style="edgeStyle=orthogonalEdgeStyle;curved=0;rounded=1;sketch=0;orthogonalLoop=1;jettySize=auto;html=1;exitX=0.5;exitY=1;exitDx=0;exitDy=0;entryX=0.5;entryY=0;entryDx=0;entryDy=0;strokeColor=#028090;fillColor=#F45B69;fontColor=#E4FDE1;fontSize=12;fontStyle=1" edge="1" parent="WIyWlLk6GJQsqaUBKTNV-1" source="uv9ooHN_KcEvDb9HeKNv-18" target="uv9ooHN_KcEvDb9HeKNv-21">
          <mxGeometry relative="1" as="geometry" />
        </mxCell>
        <mxCell id="uv9ooHN_KcEvDb9HeKNv-24" style="edgeStyle=orthogonalEdgeStyle;curved=0;rounded=1;sketch=0;orthogonalLoop=1;jettySize=auto;html=1;exitX=1;exitY=0.5;exitDx=0;exitDy=0;strokeColor=#028090;fillColor=#F45B69;fontColor=#E4FDE1;fontSize=12;fontStyle=1" edge="1" parent="WIyWlLk6GJQsqaUBKTNV-1" source="uv9ooHN_KcEvDb9HeKNv-18">
          <mxGeometry relative="1" as="geometry">
            <mxPoint x="280" y="359" as="targetPoint" />
          </mxGeometry>
        </mxCell>
        <mxCell id="uv9ooHN_KcEvDb9HeKNv-18" value="Read Humidity" style="rounded=1;whiteSpace=wrap;html=1;fontSize=12;glass=0;strokeWidth=1;shadow=0;fillColor=#F45B69;strokeColor=#028090;fontColor=#E4FDE1;fontStyle=1" vertex="1" parent="WIyWlLk6GJQsqaUBKTNV-1">
          <mxGeometry x="60" y="469" width="120" height="40" as="geometry" />
        </mxCell>
        <mxCell id="uv9ooHN_KcEvDb9HeKNv-25" style="edgeStyle=orthogonalEdgeStyle;curved=0;rounded=1;sketch=0;orthogonalLoop=1;jettySize=auto;html=1;exitX=1;exitY=0.5;exitDx=0;exitDy=0;strokeColor=#028090;fillColor=#F45B69;fontColor=#E4FDE1;fontSize=12;fontStyle=1" edge="1" parent="WIyWlLk6GJQsqaUBKTNV-1" source="uv9ooHN_KcEvDb9HeKNv-21">
          <mxGeometry relative="1" as="geometry">
            <mxPoint x="300" y="359" as="targetPoint" />
          </mxGeometry>
        </mxCell>
        <mxCell id="uv9ooHN_KcEvDb9HeKNv-28" style="edgeStyle=orthogonalEdgeStyle;curved=0;rounded=1;sketch=0;orthogonalLoop=1;jettySize=auto;html=1;exitX=0.5;exitY=1;exitDx=0;exitDy=0;entryX=0.5;entryY=0;entryDx=0;entryDy=0;strokeColor=#028090;fillColor=#F45B69;fontColor=#E4FDE1;fontSize=12;fontStyle=1" edge="1" parent="WIyWlLk6GJQsqaUBKTNV-1" source="uv9ooHN_KcEvDb9HeKNv-21" target="uv9ooHN_KcEvDb9HeKNv-26">
          <mxGeometry relative="1" as="geometry" />
        </mxCell>
        <mxCell id="uv9ooHN_KcEvDb9HeKNv-21" value="Read Dust Sensor" style="rounded=1;whiteSpace=wrap;html=1;fontSize=12;glass=0;strokeWidth=1;shadow=0;fillColor=#F45B69;strokeColor=#028090;fontColor=#E4FDE1;fontStyle=1" vertex="1" parent="WIyWlLk6GJQsqaUBKTNV-1">
          <mxGeometry x="60" y="549" width="120" height="40" as="geometry" />
        </mxCell>
        <mxCell id="uv9ooHN_KcEvDb9HeKNv-27" style="edgeStyle=orthogonalEdgeStyle;curved=0;rounded=1;sketch=0;orthogonalLoop=1;jettySize=auto;html=1;exitX=1;exitY=0.5;exitDx=0;exitDy=0;strokeColor=#028090;fillColor=#F45B69;fontColor=#E4FDE1;fontSize=12;fontStyle=1" edge="1" parent="WIyWlLk6GJQsqaUBKTNV-1" source="uv9ooHN_KcEvDb9HeKNv-26">
          <mxGeometry relative="1" as="geometry">
            <mxPoint x="320" y="359" as="targetPoint" />
          </mxGeometry>
        </mxCell>
        <mxCell id="uv9ooHN_KcEvDb9HeKNv-26" value="Read Air Quality" style="rounded=1;whiteSpace=wrap;html=1;fontSize=12;glass=0;strokeWidth=1;shadow=0;fillColor=#F45B69;strokeColor=#028090;fontColor=#E4FDE1;fontStyle=1" vertex="1" parent="WIyWlLk6GJQsqaUBKTNV-1">
          <mxGeometry x="60" y="619" width="120" height="40" as="geometry" />
        </mxCell>
        <mxCell id="uv9ooHN_KcEvDb9HeKNv-31" style="edgeStyle=orthogonalEdgeStyle;curved=0;rounded=1;sketch=0;orthogonalLoop=1;jettySize=auto;html=1;exitX=0.5;exitY=1;exitDx=0;exitDy=0;entryX=0.5;entryY=0;entryDx=0;entryDy=0;strokeColor=#028090;fillColor=#F45B69;fontColor=#E4FDE1;fontSize=12;fontStyle=1" edge="1" parent="WIyWlLk6GJQsqaUBKTNV-1" source="uv9ooHN_KcEvDb9HeKNv-30" target="uv9ooHN_KcEvDb9HeKNv-6">
          <mxGeometry relative="1" as="geometry" />
        </mxCell>
        <mxCell id="uv9ooHN_KcEvDb9HeKNv-30" value="Read Moisture Sensor" style="rounded=1;whiteSpace=wrap;html=1;fontSize=12;glass=0;strokeWidth=1;shadow=0;fillColor=#F45B69;strokeColor=#028090;fontColor=#E4FDE1;fontStyle=1" vertex="1" parent="WIyWlLk6GJQsqaUBKTNV-1">
          <mxGeometry x="430" y="279" width="120" height="40" as="geometry" />
        </mxCell>
        <mxCell id="uv9ooHN_KcEvDb9HeKNv-35" value="&lt;font style=&quot;font-size: 27px&quot;&gt;Smart Plant Watering System&lt;/font&gt;" style="rounded=1;whiteSpace=wrap;html=1;strokeWidth=2;fillWeight=4;hachureGap=8;hachureAngle=45;sketch=1;fontSize=12;fillColor=#0050ef;strokeColor=#001DBC;fontColor=#ffffff;" vertex="1" parent="WIyWlLk6GJQsqaUBKTNV-1">
          <mxGeometry x="40" y="40" width="360" height="60" as="geometry" />
        </mxCell>
        <mxCell id="uv9ooHN_KcEvDb9HeKNv-36" value="&lt;h1&gt;Christian Chavez&lt;/h1&gt;&lt;p&gt;L14_04_PlantWater&lt;/p&gt;&lt;p&gt;November 2020&lt;/p&gt;" style="text;html=1;strokeColor=none;fillColor=none;spacing=5;spacingTop=-20;whiteSpace=wrap;overflow=hidden;rounded=0;sketch=0;fontSize=12;fontColor=#E4FDE1;" vertex="1" parent="WIyWlLk6GJQsqaUBKTNV-1">
          <mxGeometry x="50" y="100" width="260" height="120" as="geometry" />
        </mxCell>
      </root>
    </mxGraphModel>
  </diagram>
</mxfile>
